<svg preserveAspectRatio="none" viewBox="0 0 196 50" version="1.1" xmlns="http://www.w3.org/2000/svg">
    <defs>
        <linearGradient x1="26.0135366%" y1="51.976801%" x2="100%" y2="46.7461474%" id="gradient">
            <stop stop-color="#FF6600" offset="0%"></stop>
            <stop stop-color="#FAB900" offset="99.9754152%"></stop>
        </linearGradient>
    </defs>
    <view id="left" viewBox="0 0 25 50" />
    <view id="right" viewBox="171 0 25 50" />
    <view id="center" viewBox="25 0 146 50" />
    <path fill="url(#gradient)" d="M170.978723,0 C184.797593,0 196,11.1928813 196,25 C196,38.8071187 184.797593,50 170.978723,50 L25.0212766,50 C11.2024071,50 0,38.8071187 0,25 C0,11.1928813 11.2024071,0 25.0212766,0 L170.978723,0 Z M170.978723,1.77083333 L25.0212766,1.77083333 C12.1812437,1.77083333 1.77234043,12.1708855 1.77234043,25 C1.77234043,37.7008234 11.9741065,48.0209227 24.6368129,48.2260546 L25.0212766,48.2291667 L170.978723,48.2291667 C183.818756,48.2291667 194.22766,37.8291145 194.22766,25 C194.22766,12.2991766 184.025893,1.97907728 171.363187,1.77394538 L170.978723,1.77083333 Z"></path>
</svg>
